<?xml version="1.0" encoding="UTF-8" standalone="no"?>
<!DOCTYPE svg PUBLIC "-//W3C//DTD SVG 1.1//EN"
 "http://www.w3.org/Graphics/SVG/1.1/DTD/svg11.dtd">
<!-- Generated by graphviz version 2.43.0 (0)
 -->
<!-- Title: %3 Pages: 1 -->
<svg width="303pt" height="258pt"
 viewBox="0.00 0.00 302.64 258.29" xmlns="http://www.w3.org/2000/svg" xmlns:xlink="http://www.w3.org/1999/xlink">
<g id="graph0" class="graph" transform="scale(1 1) rotate(0) translate(4 254.29)">
<title>%3</title>
<polygon fill="white" stroke="transparent" points="-4,4 -4,-254.29 298.64,-254.29 298.64,4 -4,4"/>
<!-- a -->
<g id="node1" class="node">
<title>a</title>
<ellipse fill="none" stroke="black" cx="27" cy="-125.15" rx="27" ry="18"/>
<text text-anchor="middle" x="27" y="-121.45" font-family="Times,serif" font-size="14.00">a</text>
</g>
<!-- b -->
<g id="node2" class="node">
<title>b</title>
<ellipse fill="none" stroke="black" cx="267.64" cy="-125.15" rx="27" ry="18"/>
<text text-anchor="middle" x="267.64" y="-121.45" font-family="Times,serif" font-size="14.00">b</text>
</g>
<!-- a&#45;&gt;b -->
<g id="edge1" class="edge">
<title>a&#45;&gt;b</title>
<path fill="none" stroke="green" d="M53.21,-129.55C96.22,-132.46 181.89,-132.66 230.93,-130.16"/>
<polygon fill="green" stroke="green" points="231.32,-133.65 241.1,-129.57 230.91,-126.66 231.32,-133.65"/>
<text text-anchor="middle" x="137.07" y="-133.66" font-family="Times,serif" font-size="14.00">2</text>
</g>
<!-- c -->
<g id="node3" class="node">
<title>c</title>
<ellipse fill="none" stroke="black" cx="87.16" cy="-20.94" rx="27" ry="18"/>
<text text-anchor="middle" x="87.16" y="-17.24" font-family="Times,serif" font-size="14.00">c</text>
</g>
<!-- a&#45;&gt;c -->
<g id="edge2" class="edge">
<title>a&#45;&gt;c</title>
<path fill="none" stroke="green" d="M42.04,-109.63C53.47,-93.38 68.54,-67.65 78.21,-48.06"/>
<polygon fill="green" stroke="green" points="81.38,-49.54 82.49,-39 75.05,-46.55 81.38,-49.54"/>
<text text-anchor="middle" x="55.12" y="-82.64" font-family="Times,serif" font-size="14.00">8</text>
</g>
<!-- d -->
<g id="node4" class="node">
<title>d</title>
<ellipse fill="none" stroke="black" cx="207.48" cy="-229.35" rx="27" ry="18"/>
<text text-anchor="middle" x="207.48" y="-225.65" font-family="Times,serif" font-size="14.00">d</text>
</g>
<!-- a&#45;&gt;d -->
<g id="edge3" class="edge">
<title>a&#45;&gt;d</title>
<path fill="none" stroke="green" d="M43.48,-139.63C73.07,-160.09 135.55,-196.51 174.3,-216.21"/>
<polygon fill="green" stroke="green" points="173.09,-219.52 183.6,-220.84 176.21,-213.25 173.09,-219.52"/>
<text text-anchor="middle" x="103.89" y="-181.72" font-family="Times,serif" font-size="14.00">6</text>
</g>
<!-- e -->
<g id="node5" class="node">
<title>e</title>
<ellipse fill="none" stroke="black" cx="207.48" cy="-20.94" rx="27" ry="18"/>
<text text-anchor="middle" x="207.48" y="-17.24" font-family="Times,serif" font-size="14.00">e</text>
</g>
<!-- a&#45;&gt;e -->
<g id="edge4" class="edge">
<title>a&#45;&gt;e</title>
<path fill="none" stroke="green" d="M51.06,-116.55C85.31,-99.93 147.67,-64.1 182.44,-41.2"/>
<polygon fill="green" stroke="green" points="184.72,-43.88 191.06,-35.39 180.81,-38.08 184.72,-43.88"/>
<text text-anchor="middle" x="111.75" y="-82.67" font-family="Times,serif" font-size="14.00">7</text>
</g>
<!-- f -->
<g id="node6" class="node">
<title>f</title>
<ellipse fill="none" stroke="black" cx="87.16" cy="-229.35" rx="27" ry="18"/>
<text text-anchor="middle" x="87.16" y="-225.65" font-family="Times,serif" font-size="14.00">f</text>
</g>
<!-- a&#45;&gt;f -->
<g id="edge5" class="edge">
<title>a&#45;&gt;f</title>
<path fill="none" stroke="green" d="M31.59,-143C39.29,-160.31 54.07,-186.59 66.57,-205.64"/>
<polygon fill="green" stroke="green" points="63.78,-207.77 72.3,-214.08 69.58,-203.84 63.78,-207.77"/>
<text text-anchor="middle" x="44.08" y="-178.12" font-family="Times,serif" font-size="14.00">3</text>
</g>
<!-- b&#45;&gt;a -->
<g id="edge6" class="edge">
<title>b&#45;&gt;a</title>
<path fill="none" stroke="green" d="M241.43,-120.74C198.42,-117.83 112.75,-117.63 63.72,-120.13"/>
<polygon fill="green" stroke="green" points="63.32,-116.64 53.55,-120.72 63.73,-123.63 63.32,-116.64"/>
<text text-anchor="middle" x="157.57" y="-124.24" font-family="Times,serif" font-size="14.00">2</text>
</g>
<!-- b&#45;&gt;c -->
<g id="edge7" class="edge">
<title>b&#45;&gt;c</title>
<path fill="none" stroke="green" d="M251.16,-110.66C221.57,-90.2 159.1,-53.78 120.35,-34.08"/>
<polygon fill="green" stroke="green" points="121.55,-30.77 111.04,-29.45 118.43,-37.04 121.55,-30.77"/>
<text text-anchor="middle" x="180.75" y="-76.17" font-family="Times,serif" font-size="14.00">3</text>
</g>
<!-- b&#45;&gt;d -->
<g id="edge8" class="edge">
<title>b&#45;&gt;d</title>
<path fill="none" stroke="green" d="M252.6,-140.66C241.17,-156.91 226.11,-182.64 216.43,-202.23"/>
<polygon fill="green" stroke="green" points="213.26,-200.76 212.16,-211.29 219.59,-203.74 213.26,-200.76"/>
<text text-anchor="middle" x="229.52" y="-175.25" font-family="Times,serif" font-size="14.00">9</text>
</g>
<!-- b&#45;&gt;f -->
<g id="edge9" class="edge">
<title>b&#45;&gt;f</title>
<path fill="none" stroke="green" d="M243.58,-133.74C209.34,-150.36 146.97,-186.2 112.2,-209.09"/>
<polygon fill="green" stroke="green" points="109.92,-206.41 103.58,-214.9 113.83,-212.22 109.92,-206.41"/>
<text text-anchor="middle" x="172.89" y="-160.22" font-family="Times,serif" font-size="14.00">5</text>
</g>
<!-- c&#45;&gt;a -->
<g id="edge10" class="edge">
<title>c&#45;&gt;a</title>
<path fill="none" stroke="green" d="M72.12,-36.46C60.69,-52.71 45.62,-78.44 35.95,-98.03"/>
<polygon fill="green" stroke="green" points="32.78,-96.55 31.68,-107.09 39.11,-99.54 32.78,-96.55"/>
<text text-anchor="middle" x="49.04" y="-56.05" font-family="Times,serif" font-size="14.00">8</text>
</g>
<!-- c&#45;&gt;b -->
<g id="edge11" class="edge">
<title>c&#45;&gt;b</title>
<path fill="none" stroke="green" d="M103.64,-35.43C133.23,-55.89 195.71,-92.31 234.46,-112.01"/>
<polygon fill="green" stroke="green" points="233.25,-115.32 243.76,-116.64 236.37,-109.05 233.25,-115.32"/>
<text text-anchor="middle" x="164.05" y="-77.52" font-family="Times,serif" font-size="14.00">3</text>
</g>
<!-- c&#45;&gt;e -->
<g id="edge12" class="edge">
<title>c&#45;&gt;e</title>
<path fill="none" stroke="green" d="M112.97,-26.6C130.1,-27.83 152.82,-28.02 171.69,-27.18"/>
<polygon fill="green" stroke="green" points="171.93,-30.67 181.71,-26.6 171.53,-23.68 171.93,-30.67"/>
<text text-anchor="middle" x="137.33" y="-30.69" font-family="Times,serif" font-size="14.00">1</text>
</g>
<!-- c&#45;&gt;f -->
<g id="edge13" class="edge">
<title>c&#45;&gt;f</title>
<path fill="none" stroke="green" d="M83.15,-39.07C79.78,-75.5 79.52,-157.79 82.37,-201.25"/>
<polygon fill="green" stroke="green" points="78.9,-201.71 83.16,-211.41 85.88,-201.17 78.9,-201.71"/>
<text text-anchor="middle" x="77.76" y="-123.96" font-family="Times,serif" font-size="14.00">6</text>
</g>
<!-- d&#45;&gt;a -->
<g id="edge14" class="edge">
<title>d&#45;&gt;a</title>
<path fill="none" stroke="green" d="M191,-214.86C161.41,-194.4 98.94,-157.98 60.19,-138.28"/>
<polygon fill="green" stroke="green" points="61.39,-134.97 50.88,-133.66 58.27,-141.24 61.39,-134.97"/>
<text text-anchor="middle" x="120.59" y="-180.37" font-family="Times,serif" font-size="14.00">6</text>
</g>
<!-- d&#45;&gt;b -->
<g id="edge15" class="edge">
<title>d&#45;&gt;b</title>
<path fill="none" stroke="green" d="M222.52,-213.83C233.96,-197.58 249.02,-171.85 258.69,-152.26"/>
<polygon fill="green" stroke="green" points="261.86,-153.74 262.97,-143.2 255.53,-150.75 261.86,-153.74"/>
<text text-anchor="middle" x="245.61" y="-186.84" font-family="Times,serif" font-size="14.00">9</text>
</g>
<!-- d&#45;&gt;f -->
<g id="edge16" class="edge">
<title>d&#45;&gt;f</title>
<path fill="none" stroke="green" d="M181.67,-223.69C164.54,-222.46 141.82,-222.27 122.96,-223.12"/>
<polygon fill="green" stroke="green" points="122.71,-219.62 112.93,-223.69 123.11,-226.61 122.71,-219.62"/>
<text text-anchor="middle" x="147.31" y="-212.2" font-family="Times,serif" font-size="14.00">9</text>
</g>
<!-- e&#45;&gt;a -->
<g id="edge17" class="edge">
<title>e&#45;&gt;a</title>
<path fill="none" stroke="green" d="M183.42,-29.54C149.18,-46.16 86.81,-81.99 52.04,-104.89"/>
<polygon fill="green" stroke="green" points="49.76,-102.21 43.42,-110.7 53.67,-108.01 49.76,-102.21"/>
<text text-anchor="middle" x="112.73" y="-56.02" font-family="Times,serif" font-size="14.00">7</text>
</g>
<!-- e&#45;&gt;c -->
<g id="edge18" class="edge">
<title>e&#45;&gt;c</title>
<path fill="none" stroke="green" d="M181.67,-15.29C164.54,-14.06 141.82,-13.87 122.96,-14.71"/>
<polygon fill="green" stroke="green" points="122.71,-11.22 112.93,-15.29 123.11,-18.21 122.71,-11.22"/>
<text text-anchor="middle" x="147.31" y="-3.8" font-family="Times,serif" font-size="14.00">1</text>
</g>
<!-- e&#45;&gt;f -->
<g id="edge19" class="edge">
<title>e&#45;&gt;f</title>
<path fill="none" stroke="green" d="M193.78,-36.72C169.25,-72.22 119.25,-158.44 97.41,-202.51"/>
<polygon fill="green" stroke="green" points="94.15,-201.22 92.96,-211.75 100.45,-204.26 94.15,-201.22"/>
<text text-anchor="middle" x="140.59" y="-108.42" font-family="Times,serif" font-size="14.00">4</text>
</g>
<!-- f&#45;&gt;a -->
<g id="edge20" class="edge">
<title>f&#45;&gt;a</title>
<path fill="none" stroke="green" d="M82.58,-211.49C74.87,-194.18 60.09,-167.9 47.59,-148.85"/>
<polygon fill="green" stroke="green" points="50.38,-146.72 41.86,-140.41 44.58,-150.65 50.38,-146.72"/>
<text text-anchor="middle" x="60.08" y="-183.97" font-family="Times,serif" font-size="14.00">3</text>
</g>
<!-- f&#45;&gt;b -->
<g id="edge21" class="edge">
<title>f&#45;&gt;b</title>
<path fill="none" stroke="green" d="M111.22,-220.75C145.47,-204.13 207.83,-168.3 242.6,-145.4"/>
<polygon fill="green" stroke="green" points="244.88,-148.08 251.22,-139.59 240.97,-142.28 244.88,-148.08"/>
<text text-anchor="middle" x="171.91" y="-186.87" font-family="Times,serif" font-size="14.00">5</text>
</g>
<!-- f&#45;&gt;c -->
<g id="edge22" class="edge">
<title>f&#45;&gt;c</title>
<path fill="none" stroke="green" d="M91.17,-211.22C94.54,-174.79 94.8,-92.5 91.95,-49.04"/>
<polygon fill="green" stroke="green" points="95.42,-48.58 91.16,-38.88 88.44,-49.13 95.42,-48.58"/>
<text text-anchor="middle" x="96.56" y="-133.93" font-family="Times,serif" font-size="14.00">6</text>
</g>
<!-- f&#45;&gt;d -->
<g id="edge23" class="edge">
<title>f&#45;&gt;d</title>
<path fill="none" stroke="green" d="M112.97,-235C130.1,-236.23 152.82,-236.43 171.69,-235.58"/>
<polygon fill="green" stroke="green" points="171.93,-239.07 181.71,-235 171.53,-232.08 171.93,-239.07"/>
<text text-anchor="middle" x="137.33" y="-239.09" font-family="Times,serif" font-size="14.00">9</text>
</g>
<!-- f&#45;&gt;e -->
<g id="edge24" class="edge">
<title>f&#45;&gt;e</title>
<path fill="none" stroke="green" d="M100.87,-213.57C125.4,-178.07 175.39,-91.85 197.23,-47.78"/>
<polygon fill="green" stroke="green" points="200.5,-49.07 201.68,-38.54 194.19,-46.03 200.5,-49.07"/>
<text text-anchor="middle" x="146.55" y="-119.47" font-family="Times,serif" font-size="14.00">4</text>
</g>
</g>
</svg>
